<svg xmlns="http://www.w3.org/2000/svg" enable-background="new 0 0 64 64" viewBox="0 0 64 64"><path fill="#231f20" d="M42,23c0-5.5-4.5-10-10-10s-10,4.5-10,10s4.5,10,10,10S42,28.5,42,23z M24,23c0-4.4,3.6-8,8-8s8,3.6,8,8
			s-3.6,8-8,8S24,27.4,24,23z"/><path fill="#231f20" d="M37.2,52.3C43.9,41.4,51,28.6,51,24.3C51,13.7,42.5,5,32,5s-19,8.7-19,19.3c0,4.3,7.1,17.1,13.8,28
			c-2.4,0.6-3.8,1.7-3.8,3c0,2.5,4.7,3.7,9,3.7s9-1.1,9-3.7C41,54,39.7,52.9,37.2,52.3z M32,7c9.4,0,17,7.8,17,17.3
			c0,3.2-5.7,14.2-15.1,29.7C33.5,54.6,32.8,55,32,55s-1.5-0.4-1.9-1.1C20.7,38.5,15,27.4,15,24.3C15,14.8,22.6,7,32,7z M32,57
			c-4.5,0-6.9-1.2-7-1.6c0-0.2,0.7-0.8,2.9-1.3c0.2,0.3,0.4,0.6,0.5,0.9C29.2,56.2,30.5,57,32,57s2.8-0.8,3.6-2
			c0.2-0.3,0.4-0.6,0.5-0.9c2.2,0.5,2.8,1.1,2.9,1.2C38.9,55.8,36.5,57,32,57z"/></svg>