<svg xmlns="http://www.w3.org/2000/svg" viewBox="0 0 128 128"><path fill="#8aa0ba" d="M83.5 0h-39C19.9 0 0 19.9 0 44.5V57s1 29.5 19.2 35.6C37.3 98.7 40.5 128 64 128s26.7-29.3 44.8-35.4C127 86.5 128 57.1 128 57.1V44.5C128 19.9 108.1 0 83.5 0z"/><path fill="#40586d" d="M106 37.1c-3.5-2.9-10.5-6.8-20.5-2.6S73.3 46.4 72.9 50.9c-.2 2.2.7 4.4 2.4 5.8 3.5 2.9 10.5 6.8 20.5 2.6s12.2-11.9 12.6-16.4c.3-2.2-.6-4.4-2.4-5.8zm-84 0c3.5-2.9 10.5-6.8 20.5-2.6s12.2 11.9 12.6 16.4c.2 2.2-.7 4.4-2.4 5.8-3.5 2.9-10.5 6.8-20.5 2.6S20 47.4 19.5 42.9c-.2-2.2.7-4.4 2.5-5.8z"/><path fill="#678099" d="M107.1 93.3S95.8 94.7 87.7 104c-8.1 9.3-27.1 24.9-47.1 9.9C46.3 121.4 52.9 128 64 128c22.7 0 26.4-27.4 43.1-34.7z"/><path fill="#40586d" d="M105.9 78.9c-5.9-.1-13.9-6.3-17.7-11.2-5-6.5-14.6-6.3-18.6-3.7-2 1.3-4.2 3.7-5.6 6.7-1.4-3-3.7-5.4-5.6-6.7-4-2.6-13.6-2.8-18.6 3.7C36 72.6 28 78.8 22.1 78.9c-2 0-3.2 2.2-2.2 3.9 3 5 9.1 11.2 20.8 10.5 13.8-.8 20.5-5.7 23.3-10.7 2.7 5 9.5 9.9 23.3 10.7 11.8.7 17.9-5.6 20.8-10.5 1-1.8-.3-3.9-2.2-3.9z"/></svg>